<?xml version="1.0" encoding="UTF-8" standalone="no"?>
<svg
   width="40"
   height="40"
   viewBox="1000 700 1000 1500"
   version="1.1"
   id="svg6"
   sodipodi:docname="favicon.svg"
   inkscape:export-filename="/home/mage/Repos/notionic_blog/public/favicon.png"
   inkscape:export-xdpi="1228.8"
   inkscape:export-ydpi="1228.8"
   inkscape:version="1.1.2 (0a00cf5339, 2022-02-04)"
   xmlns:inkscape="http://www.inkscape.org/namespaces/inkscape"
   xmlns:sodipodi="http://sodipodi.sourceforge.net/DTD/sodipodi-0.dtd"
   xmlns="http://www.w3.org/2000/svg"
   xmlns:svg="http://www.w3.org/2000/svg">
  <defs
     id="defs10" />
  <sodipodi:namedview
     id="namedview8"
     pagecolor="#ffffff"
     bordercolor="#666666"
     borderopacity="1.0"
     inkscape:pageshadow="2"
     inkscape:pageopacity="0.0"
     inkscape:pagecheckerboard="0"
     showgrid="false"
     inkscape:zoom="21.825"
     inkscape:cx="8.2932417"
     inkscape:cy="20"
     inkscape:window-width="2560"
     inkscape:window-height="1369"
     inkscape:window-x="0"
     inkscape:window-y="0"
     inkscape:window-maximized="1"
     inkscape:current-layer="g4" />
  <g
     transform="matrix(0.16288304,0,0,-0.16278539,-209.42498,3159.303)"
     id="g4">
    <path
       d="m 10751.6,8286.6 v -157.1 h 1078.3 v 3917.8 l 277.6,-347.3 268.1,-334.2 422.8,-526.8 421.7,526.8 268.1,334.2 229.1,285.8 c 91,-197.2 164.2,-405.1 218.5,-620 24.8,-98.1 44.9,-198.5 61.4,-300 29.6,-184.3 44.9,-373.3 44.9,-565.8 0,-70.9 -2.3,-141.7 -5.9,-212.6 -16.5,-281.1 -66.1,-552.8 -144.1,-812.6 -310.6,-1031.1 -1076,-1863.8 -2062.2,-2266.5 -336.6,-137 -699.2,-224.4 -1078.3,-251.6 v -1063 c 373.2,20.1 734.6,86.2 1078.3,190.2 1249.6,379.1 2274.8,1273.2 2827.6,2435.4 184.2,387.4 315.3,804.3 386.2,1241.3 28.4,172.5 46.1,348.5 54.3,526.8 3.6,70.9 4.8,141.7 4.8,212.6 0,295.3 -28.4,584.6 -81.5,865.8 -104,546.8 -303.6,1059.4 -582.3,1520 -192.5,317.7 -421.7,609.5 -682.7,871.7 l -668.5,-835.1 -289.4,-360.2 -968.5,1207.1 -26,33.1 -1045.2,1303.9 c -2.4,0 -3.6,0 -4.8,0 l -2.3,-1.2 v -1061.8 -652 -2025.5 -1078.4 -277.6 -1723.2 M 9170.08,13791.7 C 8133.07,13368.9 7340.55,12468.9 7064.17,11365.8 h 2105.91 z m 0,-6583.4 c 336.61,-137 699.21,-224.4 1078.32,-251.6 v -1063 c -373.2,20.1 -733.44,86.2 -1078.32,190.2 -1829.53,555.1 -3178.35,2215.7 -3268.11,4203.5 -2.37,70.9 -4.72,141.7 -4.72,212.6 0,295.3 28.34,584.6 81.49,865.8 321.26,1692.5 1567.32,3057.8 3191.34,3550.3 344.88,104 705.12,168.9 1078.32,190.2 v -1063 -2677.5 -1078.4 -2157.9 H 9170.08 v 2157.9 H 6964.96 c 81.5,-1396.1 969.69,-2574.8 2205.12,-3079.1 v 0"
       id="path2"
       style="fill:#0088aa"
       inkscape:export-filename="/home/mage/Repos/notionic_blog/public/favicon.png"
       inkscape:export-xdpi="1228.8"
       inkscape:export-ydpi="1228.8" />
  </g>
</svg>
